<svg height="96" viewBox="0 0 96 96" width="96" xmlns="http://www.w3.org/2000/svg"><path d="M48 4C23.7 4 4 23.7 4 48s19.7 44 44 44 44-19.7 44-44S72.3 4 48 4zm0 80c-19.882 0-36-16.118-36-36s16.118-36 36-36 36 16.118 36 36-16.118 36-36 36z"/><path d="M53.657 48l8.485-8.485c1.562-1.562 1.562-4.095 0-5.656-1.562-1.563-4.096-1.563-5.658 0L48 42.342l-8.485-8.484c-1.562-1.563-4.095-1.563-5.657 0-1.562 1.56-1.562 4.095 0 5.655L42.343 48l-8.485 8.485c-1.562 1.562-1.562 4.095 0 5.656 1.562 1.563 4.095 1.563 5.657 0L48 53.658l8.484 8.484c1.562 1.563 4.096 1.563 5.658 0 1.562-1.56 1.562-4.095 0-5.655L53.657 48z"/></svg>